<?xml version="1.0" encoding="utf-8"?>
<!-- Generator: Adobe Illustrator 25.0.0, SVG Export Plug-In . SVG Version: 6.00 Build 0)  -->
<svg version="1.1" id="Capa_1" xmlns="http://www.w3.org/2000/svg" xmlns:xlink="http://www.w3.org/1999/xlink" x="0px" y="0px"
	 viewBox="0 0 936.4 420.4" style="enable-background:new 0 0 936.4 420.4;" xml:space="preserve">
<style type="text/css">
	.st0{fill:#016D38;}
</style>
<g>
	<g>
		<g>
			<g>
				<g>
					<path class="st0" d="M350.6,284.4c-15.1,0-28.2-5.4-38.9-16.2c-10.7-10.7-16.2-23.8-16.2-38.8c0-4,1.4-7.4,4.2-10.2
						c2.9-2.9,6.3-4.3,10.3-4.3c3.9,0,7.3,1.4,10.2,4.3c2.8,2.8,4.2,6.2,4.2,10.2c0,7.3,2.5,13.3,7.7,18.5
						c5.2,5.2,11.2,7.7,18.5,7.7c7.3,0,13.3-2.5,18.5-7.7c5.1-5.1,7.6-11.1,7.6-18.4V102.3c0-4,1.5-7.4,4.3-10.2
						c2.7-2.8,6.1-4.3,10.1-4.3c4,0,7.4,1.5,10.2,4.3c2.8,2.7,4.3,6.1,4.3,10.1v127.2c0,15.1-5.4,28.1-16.2,38.7
						C378.7,279,365.7,284.4,350.6,284.4z"/>
				</g>
				<g>
					<path class="st0" d="M495,284.4c-20.4,0-38.1-7.3-52.6-21.6l0,0c-6.8-6.8-12.1-14.6-15.8-23.3c-3.9-9.1-5.9-18.8-5.9-28.7
						c0-20.3,7.3-37.9,21.7-52.4c6.9-6.8,14.8-12.1,23.7-15.8c9.1-3.9,18.9-5.9,28.9-5.9c20.3,0,38,7.3,52.5,21.7
						c6.8,6.8,12.1,14.7,15.8,23.6c3.9,9.1,5.9,18.8,5.9,28.8c0,4-1.4,7.4-4.2,10.2c-2.9,2.9-6.3,4.3-10.3,4.3H451.9
						c2.8,8.2,7.9,15.2,15,20.8c8.2,6.3,17.6,9.6,28.1,9.6c16.7,0,29.7-5.1,38.6-15.2c2.5-3,5.9-4.6,9.9-4.8c4-0.2,7.5,1,10.4,3.5
						c3,2.7,4.6,6.1,4.8,10c0.2,3.9-1,7.4-3.7,10.3C540.5,276.1,520.3,284.4,495,284.4z M451.9,196.4h86.2
						c-2.8-8.4-7.8-15.5-14.9-21.2c-8.2-6.4-17.7-9.7-28.1-9.7c-10.5,0-20,3.3-28.2,9.7C459.7,180.9,454.7,188,451.9,196.4z"/>
				</g>
				<g>
					<path class="st0" d="M600,284.4c-4,0-7.4-1.4-10.3-4.1c-2.8-2.8-4.2-6.2-4.2-10.2V102.9c0-4,1.4-7.4,4.2-10.2
						c2.9-2.9,6.3-4.3,10.3-4.3c3.9,0,7.3,1.4,10.2,4.3c2.8,2.8,4.2,6.2,4.2,10.2v167.2c0,4-1.4,7.4-4.2,10.2
						C607.3,283,603.9,284.4,600,284.4z"/>
				</g>
				<g>
					<path class="st0" d="M654,332.6c-4,0-7.4-1.4-10.3-4.1c-2.8-2.8-4.2-6.2-4.2-10.2V151.1c0-4,1.4-7.4,4.2-10.2
						c2.8-2.9,6.3-4.3,10.3-4.3c3.9,0,7.3,1.4,10.2,4.3c2.8,2.8,4.2,6.2,4.2,10.2v0.5c12.8-9.9,27.5-15,43.9-15
						c19.9,0,37.2,7.3,51.4,21.7c14.1,14.3,21.2,31.9,21.2,52.2c0,20.2-7.1,37.8-21.2,52.1c-14.2,14.3-31.5,21.6-51.4,21.6
						c-16.4,0-31.1-5-43.9-15v48.9c0,4-1.4,7.4-4.2,10.2C661.3,331.2,657.8,332.6,654,332.6z M712.2,165.6c-12.2,0-22.3,4.3-31,13.1
						c-8.6,8.8-12.9,19.5-12.9,31.9c0,12.3,4.3,23,12.9,31.8c8.7,8.8,18.8,13.1,31,13.1c12.2,0,22.3-4.3,31-13.1
						c8.5-8.8,12.8-19.5,12.8-31.8c0-12.4-4.3-23.1-12.8-31.9C734.5,169.8,724.4,165.6,712.2,165.6z"/>
				</g>
				<g>
					<path class="st0" d="M820.7,284.4c-4,0-7.4-1.4-10.2-4.2c-2.8-2.7-4.3-6.2-4.3-10.2V151.2c0-4,1.5-7.4,4.3-10.2
						c2.7-2.8,6.1-4.3,10.1-4.3c4,0,7.4,1.5,10.2,4.3c2.8,2.7,4.3,6.1,4.3,10.1v118.9c0,4-1.5,7.4-4.3,10.2
						C828.1,283,824.7,284.4,820.7,284.4z M820.7,124.2c-3,0-6-0.8-8.8-2.4c-2.8-1.6-5-3.8-6.6-6.6c-1.6-2.8-2.4-5.7-2.4-8.8
						c0-3,0.8-6,2.3-8.8c1.6-2.9,3.9-5.1,6.7-6.7c5.6-3,11.8-3,17.3,0c2.8,1.5,5.1,3.8,6.7,6.6c1.6,2.8,2.4,5.8,2.4,8.9
						c0,3-0.8,6-2.4,8.8c-1.6,2.8-3.8,5-6.6,6.6C826.7,123.4,823.8,124.2,820.7,124.2z"/>
				</g>
				<g>
					<path class="st0" d="M891.9,284.4c-4,0-7.4-1.4-10.2-4.2c-2.8-2.7-4.3-6.2-4.3-10.2V165.7h-15.7c-4,0-7.4-1.4-10.3-4.3
						c-2.8-2.8-4.2-6.2-4.2-10.2c0-4,1.4-7.4,4.2-10.2c2.8-2.9,6.3-4.3,10.3-4.3h15.7v-33.8c0-4,1.5-7.4,4.3-10.2
						c2.7-2.8,6.1-4.3,10.1-4.3c4,0,7.4,1.5,10.2,4.3c2.7,2.7,4.1,6.2,4.1,10.1v33.8h15.9c4,0,7.4,1.5,10.2,4.3
						c2.7,2.7,4.1,6.2,4.1,10.1c0,4-1.4,7.4-4.2,10.2c-2.7,2.8-6.2,4.3-10.2,4.3h-15.9v104.4c0,4-1.4,7.4-4.2,10.2
						C899.3,283,895.9,284.4,891.9,284.4z"/>
				</g>
			</g>
		</g>
	</g>
	<g>
		<path class="st0" d="M223.8,219c-3.6-10.7-9.1-20.7-15.9-29.6c-6.9-9-14.6-17.2-23.3-24.5c-0.1-2.6-0.2-5.2-0.4-7.7
			c0-0.7-0.1-1.4-0.3-2.1c-0.6-4.6-1.2-9.1-1.8-13.7c-1-7.3-1.8-14.6-4.5-21.6c-3.6-9.4-8.8-18-16-25.1
			c-6.6-6.5-14.6-11.7-23.1-15.4c-5-2.2-10.1-4.1-15.4-5.5c-5.5-1.5-11.2-2.4-16.8-3.1c-12.2-1.6-24.9-2.2-36.4,3
			c-6.7,3-12.4,9.5-14,16.7c-1.7,7.4-0.2,15.3,3.8,21.8c7.4,11.6,20.5,17.6,32.3,23.7c22.5,11.5,45.3,22.6,66,37.2
			c1.3,0.9,2.7,1.9,4,2.9c0,12.3-0.8,24.5-2.3,36.7c-3.5,24.6-10,48.6-17.5,72.2c-1.8,0.1-3.6,0.3-5.4,0.4
			c-11.7,0.9-23.3,2.1-34.9,3.7c-20.5,2.8-40.9,7.9-59.2,17.7c-17.9,9.6-33.4,24.6-40,44.2c-3.1,9.3-3.7,19.8-1.1,29.3
			c2.4,8.9,7.6,17.2,14.2,23.6c6.9,6.8,15.6,11.8,24.9,14.6c10.7,3.2,22.2,2.8,33,0c17.7-4.6,33.8-15.2,45.8-28.9
			c11.5-13.2,19.6-28.5,26.2-44.6c3.2-7.7,5.9-15.6,8.6-23.4c1.7-5,3.4-9.9,5.1-14.9c8.4-0.7,16.9-1.8,25-3.9
			c12.3-3.3,23.2-9.9,31-20c3.7-4.8,6.4-9.9,8.7-15.5c2.1-5.2,3-10.5,3.7-16C228.9,240.3,227.2,229.1,223.8,219z M152.6,142.3
			c-10.3-6.2-20.9-11.8-31.5-17.2c-10.6-5.4-21.4-10.4-31.7-16.4c-1.9-1.1-3.7-2.3-5.5-3.5c-1.5-1.2-2.9-2.6-4.1-4
			c-0.4-0.7-0.8-1.3-1.2-2c-0.2-0.6-0.4-1.2-0.5-1.8c0-0.4,0-0.7,0-1.1c0.1-0.2,0.1-0.4,0.2-0.6c0.1-0.1,0.1-0.2,0.2-0.3
			c0.2-0.2,0.4-0.4,0.6-0.5c0.5-0.3,1-0.6,1.5-0.9c1.6-0.5,3.1-0.9,4.8-1.2c6.3-0.6,12.8-0.1,19.1,0.6c8.2,1.2,16.3,3.2,24,6.3
			c4.5,2,8.9,4.5,12.9,7.4c3.1,2.5,6,5.4,8.6,8.5c2.3,3.1,4.2,6.5,5.8,10c1.7,4.5,2.9,9.1,3.5,13.9c0.3,2.5,0.7,5.1,1,7.6
			C157.6,145.4,155.1,143.9,152.6,142.3z M123.4,339.2c-4.7,10.8-10.2,21.3-17.3,30.7c-4.3,5.3-9,10.2-14.3,14.4
			c-4.8,3.6-10,6.6-15.5,9c-4.5,1.8-9.2,3.2-14,4c-3.4,0.4-6.8,0.4-10.3,0.1c-3-0.5-6-1.4-8.9-2.5c-2.9-1.3-5.6-2.9-8.2-4.8
			c-2.3-1.9-4.4-4-6.4-6.3c-1.5-2.1-2.8-4.2-3.8-6.5c-0.7-2-1.3-4-1.7-6.1c-0.2-2.5-0.2-5,0-7.4c0.5-3.1,1.4-6.1,2.5-9
			c1.7-3.6,3.7-7,6-10.2c3.2-4,6.9-7.6,10.9-10.8c6.2-4.5,12.9-8.2,19.9-11.3c14.4-5.8,29.6-9.2,45-11.3c9-1.2,18.1-2,27.2-2.8
			c-0.9,2.7-1.8,5.4-2.8,8.1C129.1,324.1,126.5,331.7,123.4,339.2z M204.9,249.6c-0.6,3.7-1.6,7.3-2.9,10.7
			c-1.3,2.8-2.9,5.5-4.7,8.1c-1.7,2.1-3.6,4-5.7,5.7c-2.3,1.7-4.8,3.1-7.4,4.3c-5.4,2.1-11,3.3-16.7,4.1c-0.2,0-0.4,0-0.6,0.1
			c4.9-16,9.3-32.2,12.4-48.7c2.4-12.5,4.1-25.1,5-37.7c1.6,1.8,3.1,3.6,4.6,5.4c4.6,6.1,8.5,12.6,11.6,19.6
			c2,5.1,3.5,10.4,4.4,15.9C205.2,241.3,205.3,245.4,204.9,249.6z"/>
		<circle class="st0" cx="108.6" cy="27.3" r="27.3"/>
	</g>
</g>
</svg>
